<svg width="202" height="181" viewBox="0 0 202 181" fill="none" xmlns="http://www.w3.org/2000/svg">
<path fill-rule="evenodd" clip-rule="evenodd" d="M89.0874 30.6586C89.1616 32.3646 93.9396 33.471 96.3194 33.811C99.1009 33.4401 103.959 32.4388 104.108 30.6586C104.293 28.4334 99.0082 27.7844 96.3194 27.8771C93.6305 27.9698 88.9947 28.5261 89.0874 30.6586Z" fill="#55D3EF"/>
<path d="M96.3194 37.6124V33.811C93.9396 33.471 89.1616 32.3646 89.0874 30.6586C88.9947 28.5261 93.6305 27.9698 96.3194 27.8771C99.0082 27.7844 104.293 28.4334 104.108 30.6586C103.959 32.4388 99.1009 33.4401 96.3194 33.811V37.6124C95.2866 39.2384 92.9385 41.7393 90.0146 42.2494C90.0805 43.8046 90.1203 45.3182 90.1354 46.7914C90.5463 86.7694 72.8068 96.9835 66.279 102.885C58.8353 109.615 31.3246 119.296 20.0131 123.932C8.70159 128.568 1.37693 136.634 1.00606 152.582C0.635193 168.529 17.4344 173.846 23.3509 175.576C29.3775 177.337 25.8543 177.615 35.0333 179.006C44.2123 180.397 46.4375 177.708 47.0865 173.721C47.6058 170.532 44.2741 167.262 42.5434 166.026C45.6031 166.026 53.0019 166.248 58.1199 167.138C64.5174 168.251 76.2925 173.165 79.6303 172.331C82.9681 171.496 81.7628 166.582 80.2793 161.946C79.0925 158.238 71.5021 154.158 67.8552 152.582L103.129 154.251C107.077 159.721 113.357 166.556 118.942 170.105C125.227 174.098 131.141 174.117 135.446 171.98C137.238 171.091 138.752 169.827 139.896 168.322C143.012 164.225 138.228 157.11 135.446 154.065L169.381 152.86C167.292 158.028 167.203 164.755 170.586 168.322C172.039 169.854 174.132 170.803 176.983 170.796C179.283 170.79 182.075 170.161 185.421 168.715C202.573 161.297 200.163 125.137 199.977 116.793C199.792 108.448 195.99 96.766 191.076 69.878C190.487 66.6503 189.902 63.5254 189.323 60.5135C188.196 54.6523 187.09 49.219 186.006 44.288C183.007 30.645 180.176 20.8476 177.54 16.4729C173.46 9.7045 160.851 2.37984 139.896 1.08179C118.942 -0.216247 103.088 14.3404 100.492 16.0093C97.8956 17.6782 85.3787 22.4068 83.5244 25.0956C81.67 27.7844 80.4647 38.9104 86.2132 41.6919C87.5423 42.3351 88.826 42.4567 90.0146 42.2494C92.9385 41.7393 95.2866 39.2384 96.3194 37.6124Z" fill="#55D3EF"/>
<path fill-rule="evenodd" clip-rule="evenodd" d="M89.0874 30.6586C89.1616 32.3646 93.9396 33.471 96.3193 33.811C99.1009 33.4401 103.959 32.4388 104.108 30.6586C104.293 28.4334 99.0081 27.7844 96.3193 27.8771C93.6305 27.9698 88.9947 28.5261 89.0874 30.6586Z" fill="#1D59B5"/>
<path d="M96.3193 33.811V37.6124M96.3193 33.811C93.9396 33.471 89.1616 32.3646 89.0874 30.6586C88.9947 28.5261 93.6305 27.9698 96.3193 27.8771C99.0081 27.7844 104.293 28.4334 104.108 30.6586C103.959 32.4388 99.1009 33.4401 96.3193 33.811ZM96.3193 37.6124C95.2866 39.2384 92.9384 41.7393 90.0146 42.2494M96.3193 37.6124C99.2554 40.5484 105.61 43.8792 110.505 43.4536C116.903 42.8973 120.24 38.4468 120.24 35.2945M169.381 152.86C173.089 143.681 175.222 142.754 176.149 137.84C177.025 133.197 176.829 124.828 176.983 119.482M169.381 152.86C167.292 158.028 167.203 164.755 170.586 168.322M169.381 152.86L135.446 154.065M170.586 168.322C171.173 164.002 173.275 155.308 176.983 155.085M170.586 168.322C172.039 169.854 174.132 170.803 176.983 170.796M182.917 159.443C183.511 162.929 179.209 168.464 176.983 170.796M176.983 170.796C179.283 170.79 182.075 170.161 185.421 168.715C202.573 161.297 200.163 125.137 199.977 116.793C199.792 108.448 195.99 96.766 191.076 69.878C190.486 66.6503 189.902 63.5254 189.323 60.5135M135.446 154.065C132.912 151.84 128.37 148.071 127.38 143.959C126.174 138.952 126.854 127.301 126.823 120.687M135.446 154.065C138.228 157.11 143.012 164.225 139.896 168.322M139.896 168.322C138.752 169.827 137.238 171.091 135.446 171.98M139.896 168.322C139.062 165.517 135.984 159.869 130.347 159.721M99.1936 124.396C99.1318 130.731 99.0081 143.403 99.1936 146.926C99.3497 149.893 100.785 151.004 103.129 154.251M123.393 164.728C124.876 168.288 132.046 171.046 135.446 171.98M135.446 171.98C131.141 174.117 125.227 174.098 118.942 170.105C113.357 166.556 107.077 159.721 103.129 154.251M103.129 154.251L67.8552 152.582M67.8552 152.582C66.5571 151.438 62.6815 148.929 57.5635 148.039C51.166 146.926 42.5433 145.535 42.5433 140.899C42.5433 137.191 43.4705 134.718 43.9341 133.946M67.8552 152.582C71.502 154.158 79.0925 158.238 80.2793 161.946C81.7627 166.582 82.9681 171.496 79.6302 172.331M79.6302 172.331C76.2924 173.165 64.5173 168.251 58.1198 167.138C53.0018 166.248 45.603 166.026 42.5433 166.026M79.6302 172.331C75.0871 167.077 64.4246 157.106 58.1198 159.257M42.5433 166.026C38.1856 164.264 28.747 160.648 25.8542 160.277C22.2383 159.814 16.1189 153.787 16.6752 148.039C17.1203 143.44 18.5296 139.447 19.1786 138.025M42.5433 166.026C44.2741 167.262 47.6057 170.532 47.0865 173.721C46.8289 175.304 46.3229 176.682 45.2322 177.681M90.0146 42.2494C88.826 42.4567 87.5423 42.3351 86.2132 41.6919C80.4647 38.9104 81.67 27.7844 83.5244 25.0956C85.3787 22.4068 97.8955 17.6782 100.492 16.0093C103.088 14.3404 118.942 -0.216247 139.896 1.08179C160.851 2.37984 173.46 9.7045 177.54 16.4729C180.176 20.8476 183.007 30.645 186.006 44.288M90.0146 42.2494C90.0805 43.8046 90.1203 45.3182 90.1354 46.7914M90.1354 46.7914C90.5463 86.7694 72.8068 96.9835 66.279 102.885C58.8353 109.615 31.3246 119.296 20.013 123.932C8.70154 128.568 1.37689 136.634 1.00602 152.582C0.635148 168.529 17.4612 173.757 23.3509 175.576C29.6557 177.523 25.8542 177.615 35.0333 179.006C40.5686 179.845 43.5751 179.2 45.2322 177.681M90.1354 46.7914C91.7022 48.7076 95.7692 51.9532 99.4717 52.2617C103.922 52.6326 107.167 52.6326 109.485 51.4273M170.771 55.1359C177.299 54.4684 183.648 47.6259 186.006 44.288M186.006 44.288C187.09 49.219 188.196 54.6523 189.323 60.5135M180.599 66.5402C184.234 66.3176 187.929 62.4297 189.323 60.5135M35.0333 171.403C37.7035 170.217 42.9451 175.094 45.2322 177.681" stroke="#1D59B5" stroke-width="2" stroke-linecap="round" stroke-linejoin="round"/>
<path d="M153.527 27.4133C153.527 33.0972 148.919 37.7049 143.235 37.7049C137.551 37.7049 132.943 33.0972 132.943 27.4133C132.943 21.7294 137.551 14.8147 143.235 14.8147C148.919 14.8147 153.527 21.7294 153.527 27.4133Z" fill="white"/>
<path d="M149.262 27.3209C149.262 31.827 145.609 35.48 141.102 35.48C136.596 35.48 132.943 31.827 132.943 27.3209C132.943 22.8147 136.596 18.0601 141.102 18.0601C145.609 18.0601 149.262 22.8147 149.262 27.3209Z" fill="#0A2A5A"/>
<path d="M75.922 100.197C78.1102 97.6178 81.856 96.1171 83.7103 96.8588C85.5647 97.6006 82.9686 102.236 81.0215 104.462C79.0745 106.687 76.0148 108.356 73.6041 107.429C71.6756 106.687 73.9784 102.487 75.922 100.197Z" fill="#215DB8"/>
<path d="M74.993 115.571C73.5635 116.896 71.3016 117.507 70.2762 116.966C69.2507 116.424 69.741 114.595 71.0085 113.455C72.2761 112.316 75.4576 110.926 76.793 111.609C77.8614 112.156 76.2627 114.394 74.993 115.571Z" fill="#215DB8"/>
<path d="M64.6105 113.733C62.7996 115.412 59.252 116.153 57.9529 115.467C56.6538 114.781 58.9291 111.655 60.5349 110.211C62.1407 108.768 64.517 107.816 66.2088 108.682C67.5623 109.374 66.2191 112.242 64.6105 113.733Z" fill="#215DB8"/>
</svg>
